<?xml version="1.0" encoding="utf-8"?>
<!-- Generator: Adobe Illustrator 27.5.0, SVG Export Plug-In . SVG Version: 6.00 Build 0)  -->
<svg version="1.1" id="Livello_1" xmlns="http://www.w3.org/2000/svg" xmlns:xlink="http://www.w3.org/1999/xlink" x="0px" y="0px"
	 viewBox="0 0 3200 648" style="enable-background:new 0 0 3200 648;" xml:space="preserve">
<style type="text/css">
	.st0{fill:#EBEBE1;}
</style>
<g>
	<g>
		<path class="st0" d="M617.8,640h106.7V0H592.9L366.2,528h-8.9L131.6,0H0v640h106.7V188.4h8.9L309.3,640h105.8l193.8-451.6h8.9V640
			z M1122.4,640h101.3V180.4h-104.9v256.9c0,93.3-57.8,133.3-123.6,133.3c-58.7,0-96.9-31.1-96.9-97.8V180.4H793.5v303.1
			c0,107.6,70.2,164.4,172.4,164.4c94.2,0,131.6-44.4,147.6-70.2h8.9V640z M1894.5,640h105.8V327.1c0-102.2-70.2-155.6-163.6-155.6
			c-88.9,0-129.8,41.8-151.1,77.3h-8.9c-15.1-32-54.2-77.3-140.4-77.3c-82.7,0-115.6,34.7-133.3,63.1h-8.9v-54.2h-101.3V640h104.9
			V371.6c0-83.6,47.1-120,110.2-120c55.1,0,85.3,32,85.3,83.6V640H1699V371.6c0-83.6,47.1-120,110.2-120c55.1,0,85.3,32,85.3,83.6
			V640z M2428.4,410.7c0,103.1-54.2,160.9-129.8,160.9c-76.4,0-129.8-57.8-129.8-160.9c0-104,53.3-160.9,129.8-160.9
			C2374.2,249.8,2428.4,307.6,2428.4,410.7 M2535.1,410.7c0-156.4-95.1-239.1-210.7-239.1c-81.8,0-124.4,39.1-141.3,62.2h-8.9V0
			h-104.9v640h72l22.2-63.1h8.9c22.2,30.2,65.8,71.1,152,71.1C2440,648,2535.1,566.2,2535.1,410.7 M2584.4,640h104.9V0h-104.9V640z
			 M3096.9,366.2h-250.7c5.3-67.6,49.8-120.9,128-120.9C3053.3,245.3,3093.3,298.7,3096.9,366.2 M3200,434.7v-35.6
			c0-139.6-87.1-228.4-225.8-228.4c-136.9,0-235.6,88.9-235.6,240S2837.3,648,2975.9,648s201.8-83.6,216.9-144.9v-13.3h-98.7
			c-8.9,37.3-40.9,85.3-118.2,85.3c-80,0-128-60.4-129.8-140.4L3200,434.7L3200,434.7z"/>
	</g>
</g>
</svg>
